<svg width="1080" height="1080" viewBox="0 0 1080 1080" fill="none" xmlns="http://www.w3.org/2000/svg">
<path d="M1026 408.715C1026 349.664 978.113 301.792 919.042 301.792C859.971 301.792 812.084 349.664 812.084 408.715C812.084 427.259 816.881 444.648 825.191 459.84C814.442 451.831 801.158 447.032 786.719 447.032C773.883 447.032 761.953 450.825 751.902 457.285C749.205 457.951 746.492 458.584 743.935 459.567C744.876 453.863 745.49 448.048 745.49 442.078C745.49 437.676 745.141 433.362 744.624 429.099C760.309 410.511 769.775 386.514 769.775 360.285C769.775 301.234 721.888 253.364 662.817 253.364C614.952 253.364 574.444 284.805 560.794 328.149C548.737 323.441 535.662 320.762 521.936 320.762C510.517 320.762 499.533 322.591 489.213 325.904C488.66 267.327 441.033 220 382.307 220C323.236 220 275.35 267.872 275.35 326.923C275.35 339.172 277.468 350.913 281.262 361.871C268.94 356.92 255.518 354.126 241.426 354.126C182.355 354.126 134.468 401.996 134.468 461.047C134.468 513.194 171.834 556.564 221.245 566.005V782.22C192.038 780.119 160.739 778.435 127.237 777.252V675.991C158.251 671.298 182.049 644.613 182.049 612.297C182.049 576.674 153.159 547.794 117.524 547.794C81.887 547.794 53 576.674 53 612.297C53 644.613 76.7957 671.298 107.811 675.991V776.633V787.123C114.184 787.63 120.653 788.157 127.237 788.707C156.803 791.186 188.399 794.13 221.245 797.62C235.172 799.1 249.316 800.675 263.625 802.358C295.269 806.078 327.696 810.308 360.257 815.113C366.729 816.067 373.204 817.043 379.683 818.044C420.831 824.403 461.957 831.709 501.756 840.075C516.079 843.085 530.222 846.235 544.135 849.528C556.955 852.564 569.583 855.715 581.955 859C572.116 853.775 559.674 847.968 544.135 841.916V771.448C567.878 773.545 592.715 775.927 618.351 778.65C632.278 780.131 646.421 781.706 660.731 783.389C692.375 787.109 724.802 791.338 757.362 796.143C763.835 797.098 770.311 798.074 776.789 799.074C817.936 805.433 859.062 812.739 898.862 821.105C913.184 824.116 927.328 827.265 941.241 830.559C954.062 833.594 966.689 836.745 979.061 840.031C969.222 834.805 956.781 828.999 941.241 822.947V513.297C989.652 503.077 1026 460.152 1026 408.715ZM544.135 650.461C564.887 639.758 579.154 618.287 579.154 593.328C579.154 568.343 564.917 546.722 544.135 536.008V532.266C552.978 530.399 561.403 527.418 569.293 523.516C583.079 535.224 599.87 543.505 618.351 547.036V687.101C591.61 689.864 566.866 692.975 544.135 696.365V650.461ZM682.997 539.259C690.125 535.97 696.832 531.925 703.023 527.23C706.377 556.103 728.79 579.094 757.362 583.417V677.269C731.214 678.374 706.401 679.775 682.997 681.458V539.259ZM776.789 583.417C776.863 583.406 776.932 583.375 777.007 583.363V676.49C776.932 676.492 776.862 676.496 776.789 676.499V583.417ZM415.019 428.585C415.434 478.492 450.076 520.108 496.616 531.423C469.756 539.223 450.106 563.961 450.106 593.328C450.106 624.51 472.337 650.248 501.756 656.246V703.405C462.057 710.647 429.278 718.642 402.487 726.689V594.216C421.593 583.039 434.494 562.428 434.494 538.693C434.494 514.94 421.612 494.24 402.487 483.046V431.88C406.774 431.061 410.93 429.899 415.019 428.585ZM360.109 475.129C355.522 475.856 351.051 476.913 346.829 478.537C347.771 472.833 348.383 467.017 348.383 461.047C348.383 448.8 346.222 437.082 342.429 426.124C348.099 428.403 354.006 430.216 360.109 431.504V475.129ZM263.625 785.671V565.63C279.28 562.327 293.608 555.532 305.918 546.2C309.266 575.021 331.609 597.969 360.109 602.351V741.154C344.569 747.206 332.127 753.013 322.289 758.238C334.661 754.953 347.288 751.802 360.109 748.766C360.158 748.755 360.208 748.745 360.257 748.733V797.148C331.286 792.825 299.17 788.934 263.625 785.671ZM379.683 800.2V744.4C387.277 742.699 394.78 740.933 402.487 739.313C434.912 732.497 468.274 726.554 501.756 721.085V827.451C469.981 817.907 429.903 808.421 379.683 800.2ZM544.135 759.067V714.33C569.088 710.65 593.849 707.402 618.351 704.367V763.25C594.992 761.57 570.228 760.171 544.135 759.067ZM660.731 766.702V699.348C668.161 698.516 675.68 697.636 682.997 696.858C708.688 694.128 733.573 691.743 757.362 689.643V778.178C728.391 773.856 696.276 769.964 660.731 766.702ZM898.862 808.482C867.086 798.937 827.009 789.452 776.789 781.23V687.964C776.859 687.958 776.935 687.952 777.007 687.946C783.59 687.395 790.059 686.868 796.432 686.362V675.871V576.923C798.161 576.036 799.796 575.038 801.431 574.004C829.92 567.314 851.243 542.058 851.243 511.534C851.243 502.842 849.498 494.564 846.381 486.996C860.778 500.338 878.794 509.839 898.862 513.673V808.482Z" fill="#4ECCA3"/>
</svg>
