<svg width="256" height="256" viewBox="0 0 256 256" fill="none" xmlns="http://www.w3.org/2000/svg">
<circle cx="128" cy="128" r="128" fill="white"/>
<path d="M203 108.059C203 98.9661 195.618 91.5947 186.511 91.5947C177.405 91.5947 170.022 98.9661 170.022 108.059C170.022 110.914 170.762 113.592 172.043 115.931C170.386 114.698 168.338 113.959 166.112 113.959C164.133 113.959 162.294 114.543 160.744 115.538C160.329 115.64 159.91 115.738 159.516 115.889C159.661 115.011 159.756 114.115 159.756 113.196C159.756 112.518 159.702 111.854 159.622 111.198C162.04 108.336 163.5 104.64 163.5 100.602C163.5 91.5087 156.117 84.1375 147.011 84.1375C139.632 84.1375 133.387 88.9789 131.283 95.6532C129.424 94.9282 127.408 94.5156 125.292 94.5156C123.532 94.5156 121.839 94.7972 120.248 95.3075C120.162 86.2876 112.82 79 103.767 79C94.6602 79 87.278 86.3715 87.278 95.4643C87.278 97.3505 87.6044 99.1584 88.1894 100.846C86.2898 100.083 84.2207 99.6531 82.0482 99.6531C72.9417 99.6531 65.5593 107.024 65.5593 116.117C65.5593 124.147 71.3197 130.825 78.9371 132.279V165.572C74.4345 165.249 69.6094 164.99 64.4446 164.807V149.215C69.2258 148.492 72.8944 144.383 72.8944 139.407C72.8944 133.922 68.4407 129.475 62.9472 129.475C57.4533 129.475 53 133.922 53 139.407C53 144.383 56.6684 148.492 61.4498 149.215V164.712V166.328C62.4323 166.406 63.4295 166.487 64.4446 166.571C69.0025 166.953 73.8734 167.406 78.9371 167.944C81.0841 168.172 83.2645 168.414 85.4704 168.673C90.3487 169.246 95.3478 169.897 100.367 170.637C101.365 170.784 102.363 170.935 103.362 171.089C109.706 172.068 116.046 173.193 122.181 174.481C124.389 174.945 126.57 175.43 128.715 175.937C130.691 176.404 132.638 176.889 134.545 177.395C133.028 176.591 131.11 175.697 128.715 174.765V163.914C132.375 164.237 136.204 164.603 140.156 165.023C142.303 165.251 144.483 165.493 146.689 165.752C151.568 166.325 156.567 166.977 161.586 167.716C162.584 167.863 163.582 168.014 164.581 168.168C170.924 169.147 177.264 170.272 183.4 171.56C185.608 172.024 187.788 172.509 189.933 173.016C191.91 173.483 193.856 173.968 195.764 174.474C194.247 173.67 192.329 172.776 189.933 171.844V124.163C197.396 122.589 203 115.979 203 108.059ZM128.715 145.284C131.914 143.636 134.113 140.33 134.113 136.486C134.113 132.639 131.918 129.31 128.715 127.66V127.084C130.078 126.796 131.377 126.337 132.593 125.736C134.718 127.539 137.307 128.814 140.156 129.358V150.926C136.033 151.351 132.219 151.83 128.715 152.352V145.284ZM150.122 128.161C151.221 127.654 152.255 127.031 153.209 126.308C153.726 130.754 157.181 134.294 161.586 134.96V149.412C157.555 149.582 153.73 149.798 150.122 150.057V128.161ZM164.581 134.96C164.592 134.958 164.603 134.954 164.615 134.952V149.292C164.603 149.292 164.592 149.293 164.581 149.293V134.96ZM108.81 111.119C108.874 118.803 114.214 125.212 121.389 126.954C117.248 128.155 114.219 131.964 114.219 136.486C114.219 141.288 117.646 145.251 122.181 146.175V153.436C116.061 154.551 111.008 155.783 106.878 157.022V136.623C109.823 134.902 111.812 131.728 111.812 128.073C111.812 124.416 109.826 121.228 106.878 119.505V111.626C107.539 111.5 108.179 111.321 108.81 111.119ZM100.345 118.286C99.6376 118.398 98.9482 118.56 98.2974 118.81C98.4426 117.932 98.5369 117.036 98.5369 116.117C98.5369 114.231 98.2037 112.427 97.619 110.74C98.4932 111.091 99.4037 111.37 100.345 111.568V118.286ZM85.4704 166.104V132.221C87.8838 131.713 90.0927 130.666 91.9904 129.229C92.5065 133.667 95.951 137.201 100.345 137.876V159.249C97.949 160.181 96.0308 161.075 94.5142 161.88C96.4215 161.374 98.3681 160.889 100.345 160.421C100.352 160.419 100.36 160.418 100.367 160.416V167.871C95.9012 167.205 90.9502 166.606 85.4704 166.104ZM103.362 168.341V159.749C104.533 159.487 105.69 159.215 106.878 158.965C111.876 157.916 117.02 157.001 122.181 156.159V172.537C117.283 171.068 111.104 169.607 103.362 168.341ZM128.715 162.007V155.119C132.561 154.552 136.379 154.052 140.156 153.584V162.651C136.555 162.393 132.737 162.177 128.715 162.007ZM146.689 163.183V152.812C147.835 152.683 148.994 152.548 150.122 152.428C154.082 152.008 157.919 151.64 161.586 151.317V164.95C157.12 164.285 152.169 163.685 146.689 163.183ZM183.4 169.616C178.502 168.147 172.323 166.686 164.581 165.42V151.059C164.592 151.058 164.604 151.057 164.615 151.056C165.63 150.971 166.627 150.89 167.609 150.812V149.197V133.96C167.876 133.824 168.128 133.67 168.38 133.511C172.772 132.481 176.059 128.592 176.059 123.891C176.059 122.553 175.79 121.278 175.31 120.113C177.529 122.167 180.306 123.63 183.4 124.221V169.616Z" fill="#4ECCA3"/>
</svg>
